<svg xmlns="http://www.w3.org/2000/svg" viewBox="0 0 128 128">
  <defs>
    <linearGradient id="bg" x1="0" y1="0" x2="1" y2="1">
      <stop offset="0%" stop-color="#4F46E5"/>
      <stop offset="100%" stop-color="#0EA5E9"/>
    </linearGradient>
  </defs>
  <rect width="128" height="128" rx="28" fill="url(#bg)"/>
  <path d="M64 22 34 34v24c0 22 12 39 30 48 18-9 30-26 30-48V34L64 22Z" fill="#ffffff" fill-opacity="0.94"/>
  <path d="M64 44c-7.7 0-14 6.3-14 14v7h-3.2c-4.3 0-7.8 3.5-7.8 7.8v18.5c0 4.3 3.5 7.8 7.8 7.8h34.4c4.3 0 7.8-3.5 7.8-7.8V72.8c0-4.3-3.5-7.8-7.8-7.8H78v-7c0-7.7-6.3-14-14-14Zm-8 21v-7a8 8 0 1 1 16 0v7H56Z" fill="#4F46E5"/>
</svg>
