<svg xmlns="http://www.w3.org/2000/svg" viewBox="0 0 256 256">
  <defs>
    <linearGradient id="splashBg" x1="0" y1="0" x2="1" y2="1">
      <stop offset="0%" stop-color="#312E81"/>
      <stop offset="100%" stop-color="#0F172A"/>
    </linearGradient>
    <linearGradient id="card" x1="0" y1="0" x2="1" y2="1">
      <stop offset="0%" stop-color="#6366F1"/>
      <stop offset="100%" stop-color="#06B6D4"/>
    </linearGradient>
  </defs>
  <rect width="256" height="256" rx="42" fill="url(#splashBg)"/>
  <rect x="56" y="54" width="144" height="148" rx="24" fill="url(#card)"/>
  <path d="M128 86c-17.7 0-32 14.3-32 32v16h-4c-8.8 0-16 7.2-16 16v26c0 8.8 7.2 16 16 16h72c8.8 0 16-7.2 16-16v-26c0-8.8-7.2-16-16-16h-4v-16c0-17.7-14.3-32-32-32Zm-18 48v-16c0-9.9 8.1-18 18-18s18 8.1 18 18v16h-36Z" fill="#ffffff"/>
  <circle cx="128" cy="162" r="9" fill="#4F46E5"/>
</svg>
